Simulation
nRows=39
nColumns=15
endheader
time  TH_x TH_y TH_z SC_y  SC_z  SC_x  AC_y  AC_z  AC_x  GH_y  GH_z  GH_yy  EL_x  PS_y
0.0  0.000000  0.000000  0.000000  -29.13941008852002  0.5814049973074599  -4.254749921266325  55.71480169806698  9.322998767165661  -4.302513268977658  31.132300659642482  15.458443941077295  9.761754056612316  27.01790611717822  0.000000
0.038999999999999986  0.000000  0.000000  0.000000  -28.63863582121517  0.8992809857170496  -4.36404662534904  55.349705471915435  9.296780693068957  -4.192080126461945  31.166273246381706  15.629822114773475  9.505209974191795  26.604792510397754  0.000000
0.07799999999999997  0.000000  0.000000  0.000000  -28.186766498265243  1.1342410322862415  -4.552224188873589  54.99826290589297  9.239247192415808  -4.095270599196806  31.094427304959595  15.732358363430096  9.37505518015643  26.181506708361592  0.000000
0.11699999999999997  0.000000  0.000000  0.000000  -27.799277260534378  1.2740507547471374  -4.811738225606985  54.709017760860974  9.207374780613932  -3.9879818627114774  31.058346438219736  15.839598282709836  9.19996649971167  25.776254746824062  0.000000
0.15599999999999994  0.000000  0.000000  0.000000  -27.494247112737483  1.3219283475106307  -5.111312699281169  54.5249123905989  9.235996061702943  -3.860220459516589  31.242364220446305  16.038013103340262  8.737687687265327  25.41436453700309  0.000000
0.19499999999999992  0.000000  0.000000  0.000000  -27.289921221404096  1.3004694043041456  -5.400486177533127  54.47082653331192  9.332352779922527  -3.7092469273338886  31.819902395976232  16.408592827649052  7.7625702441945394  25.113238688979074  0.000000
0.23399999999999993  0.000000  0.000000  0.000000  -27.187814862801048  1.240163865278829  -5.631209964140378  54.54408660392479  9.490677825894045  -3.545772100225933  32.91755282201441  17.014392839000557  6.09668951691956  24.88490297159059  0.000000
0.2729999999999999  0.000000  0.000000  0.000000  -27.17974051351495  1.172735050718263  -5.762362545740272  54.727490982525104  9.692672739020077  -3.384326851858149  34.55436157100268  17.898780691943912  3.6852948277984723  24.729099540504336  0.000000
0.3119999999999999  0.000000  0.000000  0.000000  -27.236829652920356  1.1239307946040376  -5.765086358751845  54.993762029867  9.914962333072001  -3.2406026645054467  36.62841657589549  19.081148652161822  0.604347040550923  24.638352411731635  0.000000
0.35099999999999987  0.000000  0.000000  0.000000  -27.316551905346866  1.1107321676643258  -5.620180118639505  55.318739953942  10.134225102972682  -3.127275062267568  38.9352938035699  20.55551532631233  -2.946767393632534  24.604814294634128  0.000000
0.38999999999999985  0.000000  0.000000  0.000000  -27.36743592184635  1.14198930121677  -5.3159092801935355  55.68061735770216  10.331694359229216  -3.0544938425535175  41.2411073318004  22.289450191003187  -6.721752685579966  24.62395648180304  0.000000
0.4289999999999998  0.000000  0.000000  0.000000  -27.342987322729638  1.2181719424359423  -4.846547270073378  56.06368252477894  10.498463850451445  -3.030813382678788  43.3487133907586  24.229234828522426  -10.493046942277772  24.690104292298415  0.000000
0.46799999999999986  0.000000  0.000000  0.000000  -27.211726327863197  1.337878637072574  -4.210097101916308  56.4541135439689  10.632432637984268  -3.0616690532011686  45.14344382348136  26.309319726855723  -14.10467058103761  24.795241714389263  0.000000
0.5069999999999998  0.000000  0.000000  0.000000  -26.963858018330512  1.500887776453558  -3.404660605663083  56.84062134283814  10.733073989745602  -3.149957969343911  46.599049774514924  28.46436460273142  -17.487017022377895  24.922958325338193  0.000000
0.5459999999999998  0.000000  0.000000  0.000000  -26.611455185291092  1.7073985512786403  -2.4284933634465964  57.21172538100786  10.79815337320207  -3.297265497441978  47.75514688386622  30.639310893974667  -20.644580760617902  25.050200902348976  0.000000
0.5849999999999997  0.000000  0.000000  0.000000  -26.186172788715975  1.9588144735812907  -1.2819099099525748  57.55499715238512  10.82301113554427  -3.5036631532130467  48.69033900256693  32.79421406632497  -23.63407294354735  25.155866540022465  0.000000
0.6239999999999998  0.000000  0.000000  0.000000  -25.73171153786751  2.2565375221540953  0.029658878718264423  57.85766955681562  10.801545737112852  -3.765458201259547  49.49368799161528  34.90474758186452  -26.53319648772103  25.22585875399831  0.000000
0.6629999999999998  0.000000  0.000000  0.000000  -25.290457213243382  2.6000277219781784  1.4943479611088921  58.111296750001124  10.72985430782411  -4.074167433572977  50.23789099565427  36.95867909642072  -29.405019532676665  25.25267297006753  0.000000
0.7019999999999997  0.000000  0.000000  0.000000  -24.891358562813313  2.986324445420571  3.0955975378885854  58.31576970220593  10.608688782653996  -4.414993798829079  50.95958252367665  38.94894660448999  -32.26367660845725  25.232949342320236  0.000000
0.7409999999999998  0.000000  0.000000  0.000000  -24.544307383239023  3.410336821582915  4.814071157856747  58.479976136845856  10.44416901958561  -4.767205558102831  51.65395587103366  40.86710919227786  -35.06201017814594  25.16659324647416  0.000000
0.7799999999999997  0.000000  0.000000  0.000000  -24.245069410733876  3.8653549666890226  6.627685392517422  58.61836285208099  10.245897446400816  -5.105437798544666  52.28571730258137  42.699817030865376  -37.70651820787624  25.05747532624978  0.000000
0.8189999999999997  0.000000  0.000000  0.000000  -23.98557988715938  4.344184058744722  8.5083344476493  58.74520847546717  10.024073175538412  -5.401769230130084  52.80870850377534  44.43013314277789  -40.09385720842424  24.9161970884811  0.000000
0.8579999999999997  0.000000  0.000000  0.000000  -23.76398143003765  4.840238869125267  10.418632817113425  58.87060871050956  9.78773514168245  -5.62772269637809  53.18391017034839  46.04151812674564  -42.145490600425944  24.761106411409944  0.000000
0.8969999999999997  0.000000  0.000000  0.000000  -23.588236725722794  5.348614111736339  12.311778567148778  58.999946595825634  9.545301112151714  -5.756641169952383  53.387572725336  47.52243509948461  -43.82379092016165  24.61604488168368  0.000000
0.9359999999999997  0.000000  0.000000  0.000000  -23.474084152348606  5.866263789409339  14.136550621160424  59.136255467432214  9.307027597171581  -5.76627810072719  53.412452766874885  48.868853447304495  -45.12990346497861  24.503168898427813  0.000000
0.9749999999999996  0.000000  0.000000  0.000000  -23.43961703826089  6.391320338708738  15.844544462974543  59.282885211291855  9.08647293713932  -5.641104803293289  53.26516892369292  50.085746147821666  -46.09356842167444  24.434714878600076  0.000000
1.0139999999999996  0.000000  0.000000  0.000000  -23.499709945300012  6.921689348888718  17.39736172157534  59.443720725746445  8.900758472017072  -5.374484566163194  52.96526608719646  51.1856154121377  -46.764748636510916  24.40862115441395  0.000000
1.0529999999999997  0.000000  0.000000  0.000000  -23.66235586197889  7.4545248133826725  18.770711206372855  59.62056225461286  8.768581360659486  -4.96951624744647  52.544596118726574  52.185104406025104  -47.20714143680989  24.411372816087994  0.000000
1.0919999999999996  0.000000  0.000000  0.000000  -23.927782891142087  7.986720281685361  19.955249253673703  59.81058014156767  8.707005622055974  -4.438171269131564  52.0438557706439  53.09992892646382  -47.49020068229065  24.425198798330563  0.000000
1.1309999999999996  0.000000  0.000000  0.000000  -24.28951263382689  8.515956948449617  20.95520276902229  60.0055191893897  8.728533974780502  -3.7989471782329542  51.50691277352724  53.94104232940764  -47.679470050537674  24.43412085527438  0.000000
1.1699999999999995  0.000000  0.000000  0.000000  -24.736493427082383  9.041598472118872  21.785038561291636  60.19526591689284  8.837349795154228  -3.072461606348665  50.97089964750813  54.71453752090805  -47.82483794918502  24.42567187932104  0.000000
1.2089999999999996  0.000000  0.000000  0.000000  -25.254859247606966  9.56368309989865  22.466044135620983  60.37209876989344  9.028810908096776  -2.2777560674324153  50.45990215077542  55.42389703724594  -47.951658786900786  24.38917900101523  0.000000
1.2479999999999996  0.000000  0.000000  0.000000  -25.82794321198398  10.08124357459207  23.023390132492885  60.5328633997462  9.29216352685248  -1.4314828301696292  49.98288512564203  56.07237907867304  -48.056764514150714  24.31342021653117  0.000000
1.2869999999999995  0.000000  0.000000  0.000000  -26.43661319475355  10.591097484210342  23.483496457805934  60.678705942185005  9.61344679438624  -0.5488511652319141  49.53595702455855  56.66431727601062  -48.113316019908744  24.18661439548214  0.000000
1.3259999999999996  0.000000  0.000000  0.000000  -27.060479385605845  11.087047780052655  23.870715037203766  60.812545981337486  9.97749646095825  0.35383789821309497  49.10883480446328  57.204998804279015  -48.087608644590745  24.00079747914966  0.000000
1.3649999999999995  0.000000  0.000000  0.000000  -27.679724756858093  11.560468429602146  24.203783514585577  60.9369747971561  10.368194220361751  1.2570411916646835  48.691948084818  57.699924581208435  -47.96035315664554  23.758320524192627  0.000000
1.4039999999999995  0.000000  0.000000  0.000000  -28.27633552840715  12.001188608088396  24.493503332070297  61.05306851094495  10.768638811712933  2.137239238892485  48.281881176962905  58.153300341708494  -47.74175525349907  23.475774429044844  0.000000
1.4429999999999994  0.000000  0.000000  0.000000  -28.834261544742073  12.398717299498994  24.743271636821124  61.16047951438299  11.162284279461813  2.9682937149725372  47.883445840180215  58.56661851677967  -47.469846807256864  23.180480808846777  0.000000
1.4819999999999995  0.000000  0.000000  0.000000  -29.338714872436224  12.743749632502224  24.951980122437707  61.25818496637874  11.534463429776705  3.724702928154681  47.50864668547984  58.937802618451904  -47.19450825854742  22.899866282095548  0.000000
